<svg xmlns="http://www.w3.org/2000/svg" viewBox="0 0 432 432"><rect width="432" height="432" fill="#F4F0E8"/><g fill="#0B6B3F"><g transform="translate(76.0,70.0) scale(0.2800)"><path d="M229.24 249.04000000000002 258.92 185.76 420.20000000000005 156.64000000000004 390.52000000000004 219.36ZM761.8000000000002 334.72 843.0 291.6V436.08000000000004Q843.0 487.6 811.6400000000001 516.72Q784.76 542.48 740.52 543.6H677.8Q639.72 543.6 612.84 524.5600000000001Q587.6400000000001 542.48 551.24 543.6H489.08000000000004Q475.64000000000004 543.6 460.52000000000004 540.8000000000001Q448.76000000000005 593.44 404.52000000000004 623.12Q364.76000000000005 650.0 309.32000000000005 650.0Q232.04000000000002 650.0 190.04000000000002 595.6800000000001Q157.0 553.6800000000001 157.0 496.56Q157.0 454.0 176.60000000000002 420.96000000000004L253.88000000000002 404.72Q233.16000000000003 441.68 233.16000000000003 483.12Q233.16000000000003 522.88 254.16000000000003 547.24Q275.16 571.6 309.32000000000005 571.6Q383.24 571.6 383.24 504.96000000000004V361.03999999999996L464.44000000000005 317.91999999999996V432.72Q464.44000000000005 451.20000000000005 471.44000000000005 458.20000000000005Q478.44000000000005 465.20000000000005 496.36000000000007 465.20000000000005H540.0400000000001Q557.96 465.20000000000005 564.96 458.20000000000005Q571.96 451.20000000000005 571.96 432.72V347.6L653.72 305.03999999999996V432.72Q653.72 451.20000000000005 660.72 458.20000000000005Q667.72 465.20000000000005 685.6400000000001 465.20000000000005H729.8800000000001Q747.8000000000002 465.20000000000005 754.8000000000002 458.20000000000005Q761.8000000000002 451.20000000000005 761.8000000000002 432.72Z"/><path d="M500,915 C560,825 690,735 930,700 C880,760 780,800 700,828 C610,858 545,880 500,915 Z"/><path d="M500,840 C545,770 625,708 795,676 C755,726 680,748 615,775 C560,797 522,815 500,840 Z"/><path d="M500,915 C440,825 310,735 70,700 C120,760 220,800 300,828 C390,858 455,880 500,915 Z"/><path d="M500,840 C455,770 375,708 205,676 C245,726 320,748 385,775 C440,797 478,815 500,840 Z"/></g></g></svg>