<svg xmlns="http://www.w3.org/2000/svg" viewBox="0 0 100 100"><clipPath id="c"><circle cx="50" cy="50" r="50"/></clipPath><g clip-path="url(#c)"><rect width="100" height="100" fill="#1E3A40"/><path d="M14 104 C14 80 30 70 50 70 C70 70 86 80 86 104 Z" fill="#0D4A3C"/><path d="M50 22 C34 22 30 36 31 50 C32 62 26 72 18 84 L82 84 C74 72 68 62 69 50 C70 36 66 22 50 22 Z" fill="#8FAE9E"/><path d="M37 48 C37 34 43 31 50 31 C57 31 63 34 63 48" stroke="#6F8F7F" stroke-width="2.4" fill="none"/><ellipse cx="50" cy="48" rx="11.5" ry="14" fill="#D9A57A"/></g></svg>