<svg xmlns="http://www.w3.org/2000/svg" viewBox="0 0 100 100"><clipPath id="c"><circle cx="50" cy="50" r="50"/></clipPath><g clip-path="url(#c)"><rect width="100" height="100" fill="#026C3B"/><path d="M14 104 C14 80 30 70 50 70 C70 70 86 80 86 104 Z" fill="#FFFFFF"/><path d="M42 71 L50 80 L58 71" stroke="#D8D8D8" stroke-width="2.5" fill="none" stroke-linejoin="round"/><rect x="44" y="56" width="12" height="16" rx="5" fill="#F1D3B5"/><ellipse cx="50" cy="45" rx="15" ry="17" fill="#F1D3B5"/><path d="M35 44 C35 62 42 70 50 70 C58 70 65 62 65 44 C61 54 57 57 50 57 C43 57 39 54 35 44 Z" fill="#E9E9E9"/><path d="M34.5 40 C34.5 28 41 24 50 24 C59 24 65.5 28 65.5 40 Z" fill="#FFFFFF"/><path d="M36 35 H64 M37.5 30 H62.5" stroke="#D6D6D6" stroke-width="1.6"/></g></svg>