<svg xmlns="http://www.w3.org/2000/svg" viewBox="0 0 100 100"><clipPath id="c"><circle cx="50" cy="50" r="50"/></clipPath><g clip-path="url(#c)"><rect width="100" height="100" fill="#0D4A3C"/><path d="M14 104 C14 80 30 70 50 70 C70 70 86 80 86 104 Z" fill="#FFFFFF"/><path d="M42 71 L50 80 L58 71" stroke="#D8D8D8" stroke-width="2.5" fill="none" stroke-linejoin="round"/><rect x="44" y="56" width="12" height="16" rx="5" fill="#8A5A3B"/><ellipse cx="50" cy="45" rx="15" ry="17" fill="#8A5A3B"/><path d="M35 44 C35 66 42 78 50 78 C58 78 65 66 65 44 C61 55 57 58 50 58 C43 58 39 55 35 44 Z" fill="#F2F2F2"/><path d="M34.5 40 C34.5 28 41 24 50 24 C59 24 65.5 28 65.5 40 Z" fill="#B88A2E"/><path d="M36 35 H64 M37.5 30 H62.5" stroke="#8C6820" stroke-width="1.6"/></g></svg>